<?xml version="1.0" encoding="UTF-8" standalone="no"?>
<svg
   xmlns:dc="http://purl.org/dc/elements/1.1/"
   xmlns:cc="http://creativecommons.org/ns#"
   xmlns:rdf="http://www.w3.org/1999/02/22-rdf-syntax-ns#"
   xmlns:svg="http://www.w3.org/2000/svg"
   xmlns="http://www.w3.org/2000/svg"
   xmlns:sodipodi="http://sodipodi.sourceforge.net/DTD/sodipodi-0.dtd"
   xmlns:inkscape="http://www.inkscape.org/namespaces/inkscape"
   height="200"
   preserveAspectRatio="xMidYMid"
   viewBox="0 0 200 200"
   width="200"
   id="svg2"
   version="1.1"
   inkscape:version="0.91 r13725"
   sodipodi:docname="logo.svg"
   inkscape:export-filename="/home/kirschcobric/Escritorio/Cultura Candelaria/Diseño de página/Portada Mayo/conozca-servidores-públicos-2.png"
   inkscape:export-xdpi="27"
   inkscape:export-ydpi="27">
  <metadata
     id="metadata18">
    <rdf:RDF>
      <cc:Work
         rdf:about="">
        <dc:format>image/svg+xml</dc:format>
        <dc:type
           rdf:resource="http://purl.org/dc/dcmitype/StillImage" />
        <dc:title></dc:title>
      </cc:Work>
    </rdf:RDF>
  </metadata>
  <sodipodi:namedview
     pagecolor="#ffffff"
     bordercolor="#666666"
     borderopacity="1"
     objecttolerance="10"
     gridtolerance="10"
     guidetolerance="10"
     inkscape:pageopacity="0"
     inkscape:pageshadow="2"
     inkscape:window-width="1280"
     inkscape:window-height="773"
     id="namedview16"
     showgrid="false"
     inkscape:zoom="3.7"
     inkscape:cx="100"
     inkscape:cy="100"
     inkscape:window-x="30"
     inkscape:window-y="768"
     inkscape:window-maximized="1"
     inkscape:current-layer="layer7"
     units="px"
     inkscape:snap-object-midpoints="true" />
  <defs
     id="defs4">
    <style
       id="style6">
      .cls-1 {
        fill: #3498db;
      }

      .cls-2 {
        fill: #000;
        opacity: 0.3;
      }

      .cls-2, .cls-3 {
        fill-rule: evenodd;
      }

      .cls-3 {
        fill: #fff;
      }
    </style>
    <path
       sodipodi:nodetypes="csc"
       inkscape:connector-curvature="0"
       id="path8150-8"
       d="M 556.41211,642.2977 C 441.85923,805.75051 180.2989,730.31497 184.71303,524.17365 188.86724,330.17089 428.68066,246.28763 556.41211,406.69754"
       style="fill:none;fill-rule:evenodd;stroke:#ff792f;stroke-width:1px;stroke-linecap:butt;stroke-linejoin:miter;stroke-opacity:1" />
  </defs>
  <flowRoot
     xml:space="preserve"
     id="flowRoot10269"
     style="font-style:normal;font-weight:normal;font-size:40px;line-height:125%;font-family:sans-serif;letter-spacing:0px;word-spacing:0px;fill:#000000;fill-opacity:1;stroke:none;stroke-width:1px;stroke-linecap:butt;stroke-linejoin:miter;stroke-opacity:1"
     transform="translate(0,-852.3623)"><flowRegion
       id="flowRegion10271"><rect
         id="rect10273"
         width="457.77579"
         height="126.68009"
         x="702.49872"
         y="-1011.9475" /></flowRegion><flowPara
       id="flowPara10275" /></flowRoot>  <g
     inkscape:groupmode="layer"
     id="layer3"
     inkscape:label="FONDO"
     style="display:none"
     transform="translate(0,-520)">
    <rect
       style="color:#000000;clip-rule:nonzero;display:inline;overflow:visible;visibility:visible;opacity:1;isolation:auto;mix-blend-mode:normal;color-interpolation:sRGB;color-interpolation-filters:linearRGB;solid-color:#000000;solid-opacity:1;fill:#666666;fill-opacity:1;fill-rule:nonzero;stroke:none;stroke-width:0.2;stroke-linecap:butt;stroke-linejoin:round;stroke-miterlimit:4;stroke-dasharray:none;stroke-dashoffset:0;stroke-opacity:0.99751904;color-rendering:auto;image-rendering:auto;shape-rendering:auto;text-rendering:auto;enable-background:accumulate"
       id="rect4187"
       width="720"
       height="720"
       x="0"
       y="0" />
  </g>
  <g
     inkscape:groupmode="layer"
     id="layer5"
     inkscape:label="TRANSPARENCIA"
     style="display:inline"
     transform="translate(0,-520)" />
  <g
     inkscape:groupmode="layer"
     id="layer4"
     inkscape:label="CC"
     style="display:inline"
     transform="translate(0,-520)" />
  <g
     inkscape:groupmode="layer"
     id="layer6"
     inkscape:label="C"
     style="display:inline"
     transform="translate(0,-520)" />
  <g
     inkscape:groupmode="layer"
     id="layer7"
     inkscape:label="RED"
     transform="translate(0,-520)">
    <g
       id="g4224"
       transform="matrix(0.38,0,0,0.38,-36.799999,483.2)">
      <path
         id="path4233"
         d="M 85.246499,488.32895 A 163.77884,163.77884 0 0 1 -90.19384,639.51788 163.77884,163.77884 0 0 1 -241.4142,464.10463 163.77884,163.77884 0 0 1 -66.028045,312.85285 163.77884,163.77884 0 0 1 85.255158,488.2119"
         style="color:#000000;clip-rule:nonzero;display:inline;overflow:visible;visibility:visible;opacity:0.5;isolation:auto;mix-blend-mode:normal;color-interpolation:sRGB;color-interpolation-filters:linearRGB;solid-color:#000000;solid-opacity:1;fill:#ffffff;fill-opacity:0.49803922;fill-rule:nonzero;stroke:none;stroke-width:0.2;stroke-linecap:butt;stroke-linejoin:round;stroke-miterlimit:4;stroke-dasharray:none;stroke-dashoffset:0;stroke-opacity:0.99751904;color-rendering:auto;image-rendering:auto;shape-rendering:auto;text-rendering:auto;enable-background:accumulate"
         transform="matrix(0.62845996,-0.77784194,0.77784194,0.62845996,0,0)"
         inkscape:connector-curvature="0" />
      <g
         id="g4253"
         style="display:inline">
        <path
           style="fill:#fe7f01;fill-opacity:1"
           d="M 315.67851,148.7482 A 211.32749,211.32749 0 0 0 110.07152,365.49785 211.32749,211.32749 0 0 0 326.67282,571.25968 211.32749,211.32749 0 0 0 532.59106,354.8083 l -0.0166,-0.60945 A 211.32749,211.32749 0 0 0 315.67851,148.7482 Z m 6.10424,61.82044 a 149.43214,149.43214 0 0 1 10.54284,0.4047 149.43214,149.43214 0 0 1 138.0306,159.99828 l -0.008,0.10641 A 149.43214,149.43214 0 0 1 310.2757,509.02326 149.43214,149.43214 0 0 1 172.30305,348.97662 149.43214,149.43214 0 0 1 321.78275,210.56864 Z"
           id="circle10-7-2-5"
           inkscape:connector-curvature="0" />
        <g
           id="text4235"
           style="font-style:normal;font-weight:normal;font-size:8.75px;line-height:0%;font-family:sans-serif;text-align:end;letter-spacing:0px;word-spacing:0px;text-anchor:end;fill:#000000;fill-opacity:1;stroke:none;stroke-width:1px;stroke-linecap:butt;stroke-linejoin:miter;stroke-opacity:1">
          <path
             id="path4163"
             style="font-style:normal;font-variant:normal;font-weight:normal;font-stretch:normal;font-size:41.25px;font-family:Ubuntu;-inkscape-font-specification:Ubuntu;letter-spacing:17.5px;fill:#ffffff"
             d="m 413.4811,494.72073 q 2.45123,-1.74903 5.04096,-2.38071 2.58973,-0.63168 5.13574,-0.11732 2.546,0.51435 4.95716,2.18909 2.40154,1.73227 4.486,4.65359 2.08446,2.92133 2.8167,5.79403 0.72262,2.93023 0.31372,5.55301 -0.4089,2.62278 -1.84859,4.86622 -1.43968,2.24345 -3.72301,3.87268 -1.44388,1.03026 -2.7293,1.6434 -1.319,0.63711 -2.35014,0.96746 -1.06471,0.35432 -1.79364,0.46904 -0.72893,0.11472 -1.02624,0.12417 l -0.97655,-3.35714 q 0.44596,-0.0142 1.18451,-0.18642 0.73855,-0.17226 1.64499,-0.46432 0.87286,-0.2681 1.84174,-0.75673 0.95926,-0.43109 1.8323,-1.05403 1.84681,-1.31777 2.86904,-3.00997 1.02222,-1.6922 1.20062,-3.64376 0.17839,-1.95157 -0.49666,-4.10495 -0.68467,-2.09586 -2.21807,-4.24488 -1.48548,-2.08186 -3.1775,-3.45893 -1.72561,-1.35311 -3.58588,-1.90069 -1.83631,-0.51401 -3.75937,-0.15532 -1.95664,0.38264 -3.90419,1.77228 -2.24975,1.60528 -3.39177,3.12959 -1.14203,1.52431 -1.6172,2.42077 l -2.75621,-2.08729 q 0.11525,-0.33561 0.52799,-1.0355 0.4367,-0.66632 1.1756,-1.54827 0.7389,-0.88195 1.82793,-1.91238 1.08903,-1.03043 2.49932,-2.03672 z"
             inkscape:connector-curvature="0" />
          <path
             id="path4165"
             style="font-style:normal;font-variant:normal;font-weight:normal;font-stretch:normal;font-size:41.25px;font-family:Ubuntu;-inkscape-font-specification:Ubuntu;letter-spacing:17.5px;fill:#ffffff"
             d="m 376.88069,513.44858 q 2.63813,-0.95303 4.87225,-0.83907 2.23413,0.11395 3.98015,1.06212 1.76004,0.98697 3.08154,2.70253 1.2827,1.72958 2.09558,3.97975 l 6.09662,16.8763 -3.76322,1.35947 -5.94245,-16.44953 q -1.45758,-4.0348 -3.90092,-5.21351 -2.44333,-1.17872 -5.31424,-0.14159 -1.43546,0.51856 -2.44517,1.36577 -1.0345,0.90003 -1.55165,2.13947 -0.51715,1.23944 -0.46414,2.84308 0.067,1.64243 0.79582,3.65983 l 5.94245,16.44954 -3.76322,1.35947 -6.09662,-16.87629 q -0.81288,-2.25017 -0.8929,-4.41422 -0.11882,-2.15003 0.64288,-4.04799 0.73693,-1.84515 2.38241,-3.36063 1.60669,-1.50146 4.24483,-2.4545 z"
             inkscape:connector-curvature="0" />
          <path
             id="path4167"
             style="font-style:normal;font-variant:normal;font-weight:normal;font-stretch:normal;font-size:41.25px;font-family:Ubuntu;-inkscape-font-specification:Ubuntu;letter-spacing:17.5px;fill:#ffffff"
             d="m 326.19308,527.63045 -0.35514,-3.44675 17.11066,-1.76303 2.92993,28.4357 -3.98018,0.4101 -2.57479,-24.98895 -13.13048,1.35293 z"
             inkscape:connector-curvature="0" />
          <path
             id="path4169"
             style="font-style:normal;font-variant:normal;font-weight:normal;font-stretch:normal;font-size:41.25px;font-family:Ubuntu;-inkscape-font-specification:Ubuntu;letter-spacing:17.5px;fill:#ffffff"
             d="m 286.30399,549.4891 0.43185,-3.43798 8.92239,1.12075 3.1309,-24.92538 3.97006,0.49868 -3.13091,24.92538 8.92238,1.12076 -0.43184,3.43798 -21.81483,-2.74019 z"
             inkscape:connector-curvature="0" />
          <path
             id="path4171"
             style="font-style:normal;font-variant:normal;font-weight:normal;font-stretch:normal;font-size:41.25px;font-family:Ubuntu;-inkscape-font-specification:Ubuntu;letter-spacing:17.5px;fill:#ffffff"
             d="m 259.23738,510.93205 q 2.59432,1.06657 4.17252,2.652 1.5782,1.58542 2.2344,3.46079 0.64051,1.91353 0.4667,4.07207 -0.21196,2.14285 -1.12168,4.35565 l -6.8229,16.59597 -3.70071,-1.52142 6.65036,-16.17631 q 1.63122,-3.96777 0.61343,-6.4824 -1.01779,-2.51463 -3.84101,-3.6753 -1.41161,-0.58034 -2.7287,-0.63122 -1.37091,-0.0284 -2.58669,0.54217 -1.21577,0.57057 -2.25393,1.79396 -1.05384,1.26155 -1.86945,3.24544 l -6.65036,16.1763 -3.70071,-1.52143 6.82289,-16.59597 q 0.90972,-2.2128 2.30439,-3.86942 1.35651,-1.67231 3.19586,-2.56633 1.7855,-0.87154 4.02247,-0.88849 2.19881,-0.0326 4.79312,1.03394 z"
             inkscape:connector-curvature="0" />
          <path
             id="path4173"
             style="font-style:normal;font-variant:normal;font-weight:normal;font-stretch:normal;font-size:41.25px;font-family:Ubuntu;-inkscape-font-specification:Ubuntu;letter-spacing:17.5px;fill:#ffffff"
             d="m 209.56044,495.68818 q -0.008,-1.05649 0.0567,-2.73843 0.007,-1.67506 0.18519,-3.63488 0.15297,-1.92742 0.44045,-3.95893 0.25507,-2.05703 0.6928,-3.81265 l 3.43484,2.70566 q -0.32187,1.74186 -0.53965,3.61823 -0.25018,1.85084 -0.36586,3.59759 -0.1412,1.77915 -0.15478,3.39629 -0.046,1.5916 -0.0174,2.82188 0.44678,0.29942 0.90044,0.65677 0.42125,0.33183 0.87491,0.68918 l 2.81917,2.22068 6.9173,-8.78153 3.14321,2.47593 -17.43365,22.13206 q -1.58382,-0.72248 -3.28061,-1.90153 -1.75471,-1.17216 -3.11569,-2.24421 -4.73101,-3.72667 -5.78985,-7.44881 -1.09124,-3.74766 1.691,-7.27972 1.76123,-2.23589 4.21091,-2.87926 2.41729,-0.6689 5.33059,0.36568 z m -3.53225,14.28355 q 2.00906,1.58256 3.15498,2.32767 l 6.66205,-8.45749 -2.23589,-1.76123 q -1.62021,-1.27626 -3.044,-2.13524 -1.4238,-0.85899 -2.65606,-1.09451 -1.26467,-0.26104 -2.38886,0.16619 -1.14972,0.45963 -2.22177,1.82061 -0.99548,1.26376 -1.17307,2.48915 -0.17759,1.22538 0.28204,2.3751 0.42723,1.12419 1.40823,2.21199 0.94859,1.06228 2.21235,2.05776 z"
             inkscape:connector-curvature="0" />
          <path
             id="path4175"
             style="font-style:normal;font-variant:normal;font-weight:normal;font-stretch:normal;font-size:41.25px;font-family:Ubuntu;-inkscape-font-specification:Ubuntu;letter-spacing:17.5px;fill:#ffffff"
             d="m 183.81416,449.48272 q -1.08218,1.66322 -2.14663,3.21113 -1.0977,1.57229 -2.20428,3.20225 l 7.65973,10.4449 7.42455,-2.22212 2.4638,3.35967 q -4.6348,1.35278 -8.58214,2.45719 -3.98061,1.1288 -7.57979,2.08018 -3.62357,0.91813 -6.95664,1.67436 -3.36633,0.78063 -6.73932,1.41268 l -2.17107,-2.9605 q 1.61662,-3.02705 3.37294,-6.00311 1.72306,-2.95166 3.71224,-6.09847 1.96478,-3.18007 4.2378,-6.63735 2.23976,-3.43289 4.92304,-7.44679 l 2.58577,3.52598 z m -6.32899,9.2963 q -2.11336,3.18672 -4.02714,6.22709 -1.97143,3.03149 -3.63683,5.99202 3.34859,-0.66531 6.85685,-1.60117 3.45059,-0.94474 7.10078,-2.03583 l -6.29366,-8.58211 z"
             inkscape:connector-curvature="0" />
          <path
             id="path4177"
             style="font-style:normal;font-variant:normal;font-weight:normal;font-stretch:normal;font-size:41.25px;font-family:Ubuntu;-inkscape-font-specification:Ubuntu;letter-spacing:17.5px;fill:#ffffff"
             d="m 160.76938,389.19952 q 0.58405,2.95407 0.0929,5.57408 -0.49117,2.62002 -2.00861,4.72811 -1.51744,2.1081 -4.03669,3.61534 -2.56772,1.47478 -6.08833,2.17083 -3.5206,0.69605 -6.43988,0.17996 -2.96775,-0.54856 -5.18925,-2.00153 -2.22149,-1.45298 -3.67273,-3.68896 -1.45124,-2.23599 -1.99528,-4.98772 -0.34403,-1.74007 -0.37325,-3.16394 -0.0372,-1.46434 0.0865,-2.54001 0.11572,-1.11614 0.31144,-1.82761 0.19573,-0.71147 0.30959,-0.98628 l 3.46135,0.49302 q -0.17079,0.41221 -0.31805,1.15614 -0.14726,0.74394 -0.25451,1.69021 -0.11525,0.90581 -0.0691,1.98994 -0.002,1.05167 0.20569,2.10381 0.44004,2.22567 1.56093,3.85419 1.12089,1.62852 2.82571,2.59497 1.70482,0.96644 3.9451,1.23834 2.19181,0.23944 4.78168,-0.2726 2.50894,-0.49604 4.46073,-1.4706 1.94379,-1.01503 3.20904,-2.48459 1.22478,-1.46156 1.69009,-3.36164 0.45731,-1.94054 -0.007,-4.28761 -0.53604,-2.71127 -1.4546,-4.37979 -0.91856,-1.66853 -1.53971,-2.47079 l 3.03732,-1.65172 q 0.25834,0.24327 0.72608,0.90766 0.42728,0.6724 0.92656,1.70899 0.49929,1.0366 0.98964,2.4534 0.49036,1.4168 0.82638,3.1164 z"
             inkscape:connector-curvature="0" />
          <path
             id="path4179"
             style="font-style:normal;font-variant:normal;font-weight:normal;font-stretch:normal;font-size:41.25px;font-family:Ubuntu;-inkscape-font-specification:Ubuntu;letter-spacing:17.5px;fill:#ffffff"
             d="m 158.66988,338.77702 q -1.9032,0.56148 -3.718,1.04681 -1.85593,0.48227 -3.75607,1.00261 l -0.96178,12.91674 7.08812,3.13373 -0.30936,4.15475 q -4.40246,-1.98238 -8.12091,-3.707 -3.75959,-1.72769 -7.11395,-3.34247 -3.35129,-1.65592 -6.37655,-3.24621 -3.06641,-1.59334 -6.04135,-3.30397 l 0.27261,-3.66111 q 3.19548,-1.25118 6.46404,-2.37282 3.22742,-1.1247 6.78394,-2.2249 3.55958,-1.14133 7.53358,-2.29317 3.93286,-1.15491 8.58035,-2.46342 l -0.32467,4.36043 z m -10.85072,2.95619 q -3.67686,1.04987 -7.1069,2.11813 -3.46812,1.02405 -6.65747,2.19295 2.978,1.66949 6.25315,3.23701 3.23707,1.52333 6.72096,3.06503 l 0.79026,-10.61312 z"
             inkscape:connector-curvature="0" />
          <path
             id="path4181"
             style="font-style:normal;font-variant:normal;font-weight:normal;font-stretch:normal;font-size:41.25px;font-family:Ubuntu;-inkscape-font-specification:Ubuntu;letter-spacing:17.5px;fill:#ffffff"
             d="m 170.65811,295.16891 q -1.74699,0.31784 -3.94266,0.77673 -2.18127,0.42023 -4.55048,0.99057 -2.40787,0.55594 -4.89758,1.21345 -2.47532,0.61886 -4.79601,1.29529 -2.35935,0.66204 -4.45796,1.33314 -2.09862,0.6711 -3.73869,1.29286 l 20.91336,7.78757 -1.3675,3.6724 -26.78921,-9.97558 1.1084,-2.97657 q 2.6094,-1.09714 5.96233,-2.1815 3.32867,-1.13742 6.82184,-2.12555 3.4689,-1.04118 6.75973,-1.84055 3.30522,-0.83803 5.81466,-1.31213 l -19.83097,-7.38451 1.3675,-3.6724 26.78921,9.97557 -1.16597,3.13121 z"
             inkscape:connector-curvature="0" />
          <path
             id="path4183"
             style="font-style:normal;font-variant:normal;font-weight:normal;font-stretch:normal;font-size:41.25px;font-family:Ubuntu;-inkscape-font-specification:Ubuntu;letter-spacing:17.5px;fill:#ffffff"
             d="m 186.44376,243.0569 q 2.96396,2.23553 4.47497,4.82188 1.47807,2.56151 1.66032,5.33401 0.14932,2.74766 -0.88974,5.63236 -1.07199,2.85986 -3.18332,5.65916 -1.04325,1.38318 -2.44178,2.9634 -1.34076,1.57213 -2.68849,2.67399 L 161.2448,253.44976 q 0.68907,-1.59864 1.83223,-3.3198 1.13507,-1.77894 2.17832,-3.16212 2.11133,-2.7993 4.59944,-4.59107 2.45517,-1.81662 5.17102,-2.40327 2.68291,-0.6115 5.58491,0.13061 2.86907,0.71726 5.83304,2.95279 z m -0.53836,19.07261 q 3.42781,-4.54474 2.81157,-8.52292 -0.64917,-4.00302 -4.83165,-7.1576 -4.18248,-3.15458 -8.17685,-2.65388 -4.0273,0.47585 -7.45511,5.0206 -1.01841,1.35025 -1.55678,2.13254 -0.51353,0.74937 -0.70415,1.0706 l 17.45445,13.16477 q 0.25649,-0.27155 0.83588,-0.97124 0.60424,-0.73262 1.62264,-2.08287 z"
             inkscape:connector-curvature="0" />
          <path
             id="path4185"
             style="font-style:normal;font-variant:normal;font-weight:normal;font-stretch:normal;font-size:41.25px;font-family:Ubuntu;-inkscape-font-specification:Ubuntu;letter-spacing:17.5px;fill:#ffffff"
             d="m 214.76017,235.34309 -17.48959,-22.61167 13.80193,-10.67547 2.09471,2.70818 -10.63695,8.22743 5.19893,6.72151 9.46232,-7.31888 2.04423,2.64293 -9.46231,7.31887 6.057,7.83089 11.45266,-8.85837 2.09472,2.70818 -14.61765,11.3064 z"
             inkscape:connector-curvature="0" />
          <path
             id="path4187"
             style="font-style:normal;font-variant:normal;font-weight:normal;font-stretch:normal;font-size:41.25px;font-family:Ubuntu;-inkscape-font-specification:Ubuntu;letter-spacing:17.5px;fill:#ffffff"
             d="m 263.3766,202.79194 1.37884,3.17884 -15.78069,6.84492 -11.37536,-26.22547 3.67081,-1.59222 9.99652,23.04662 12.10988,-5.25269 z"
             inkscape:connector-curvature="0" />
          <path
             id="path4189"
             style="font-style:normal;font-variant:normal;font-weight:normal;font-stretch:normal;font-size:41.25px;font-family:Ubuntu;-inkscape-font-specification:Ubuntu;letter-spacing:17.5px;fill:#ffffff"
             d="m 305.63313,196.72606 q -0.97082,-1.73059 -1.84773,-3.39193 -0.88309,-1.70213 -1.81312,-3.43888 l -12.807,1.93597 -1.47827,7.60766 -4.11944,0.62271 q 0.95326,-4.73315 1.8074,-8.7421 0.84797,-4.04973 1.67603,-7.67927 0.86884,-3.6357 1.74622,-6.93895 0.87122,-3.34403 1.87713,-6.62499 l 3.63001,-0.54872 q 1.93073,2.83703 3.75143,5.77414 1.81454,2.89633 3.6784,6.11894 1.90464,3.21645 3.91173,6.8346 2.00092,3.57737 4.31059,7.81728 l -4.32338,0.65354 z m -5.29611,-9.9211 q -1.84157,-3.35115 -3.64615,-6.45757 -1.76996,-3.15337 -3.61912,-6.00274 -0.96512,3.27479 -1.76472,6.81659 -0.76498,3.49485 -1.49296,7.23441 l 10.52295,-1.59069 z"
             inkscape:connector-curvature="0" />
          <path
             id="path4191"
             style="font-style:normal;font-variant:normal;font-weight:normal;font-stretch:normal;font-size:41.25px;font-family:Ubuntu;-inkscape-font-specification:Ubuntu;letter-spacing:17.5px;fill:#ffffff"
             d="m 346.67028,186.02164 q 0.55829,0.89696 1.38115,2.36529 0.86869,1.43222 1.73948,3.19701 0.87566,1.72382 1.69092,3.60664 0.85623,1.88768 1.39932,3.61361 l -4.34209,-0.51475 q -0.63473,-1.65372 -1.42846,-3.36783 -0.75276,-1.70925 -1.56591,-3.25951 -0.8083,-1.59122 -1.64088,-2.97763 -0.79161,-1.38155 -1.45822,-2.41597 -0.53737,-0.0222 -1.11086,-0.0901 -0.53252,-0.0631 -1.106,-0.13111 l -3.5638,-0.42249 -1.31601,11.10102 -3.97343,-0.47105 3.31674,-27.97783 q 1.72805,-0.21053 3.79078,-0.0906 2.10854,0.0838 3.829,0.28777 5.98062,0.709 8.82673,3.33104 2.88708,2.62689 2.35776,7.09188 -0.33507,2.82645 -2.08866,4.65397 -1.71263,1.83238 -4.73756,2.47071 z m -4.44334,-14.02688 q -2.53971,-0.30108 -3.90607,-0.33844 l -1.26745,10.69138 2.82646,0.33507 q 2.04816,0.24281 3.71097,0.23224 1.6628,-0.0106 2.83679,-0.45294 1.21496,-0.43751 1.95081,-1.38875 0.74071,-0.9922 0.94466,-2.71265 0.18939,-1.59757 -0.2988,-2.73545 -0.48818,-1.13788 -1.48038,-1.87859 -0.95124,-0.73585 -2.35581,-1.15159 -1.36362,-0.41089 -2.96118,-0.60028 z"
             inkscape:connector-curvature="0" />
          <path
             id="path4193"
             style="font-style:normal;font-variant:normal;font-weight:normal;font-stretch:normal;font-size:41.25px;font-family:Ubuntu;-inkscape-font-specification:Ubuntu;letter-spacing:17.5px;fill:#ffffff"
             d="m 383.34818,177.85365 3.77461,1.32755 -9.48442,26.967 -3.7746,-1.32754 9.48441,-26.96701 z"
             inkscape:connector-curvature="0" />
          <path
             id="path4195"
             style="font-style:normal;font-variant:normal;font-weight:normal;font-stretch:normal;font-size:41.25px;font-family:Ubuntu;-inkscape-font-specification:Ubuntu;letter-spacing:17.5px;fill:#ffffff"
             d="m 416.33259,226.26442 q 0.3994,-1.94368 0.82444,-3.77354 0.44708,-1.86472 0.88135,-3.78635 l -10.94736,-6.92262 -6.09868,4.78204 -3.52129,-2.2267 q 3.81969,-2.95321 7.09026,-5.42395 3.29263,-2.5056 6.29505,-4.70666 3.0373,-2.17901 5.86335,-4.10116 2.8481,-1.95701 5.7567,-3.77815 l 3.10292,1.96215 q -0.39838,3.40849 -0.94544,6.82057 -0.52502,3.37721 -1.22641,7.03334 -0.66653,3.67818 -1.51866,7.72704 -0.83008,4.014 -1.86063,8.73092 l -3.6956,-2.33693 z m 2.49331,-10.96633 q 0.8024,-3.73868 1.47251,-7.26817 0.72703,-3.54231 1.19514,-6.9067 -2.87374,1.84318 -5.79721,3.99656 -2.86656,2.14056 -5.8654,4.4903 l 8.99496,5.68801 z"
             inkscape:connector-curvature="0" />
        </g>
      </g>
      <g
         id="g4247"
         style="display:inline">
        <g
           id="g4228">
          <path
             id="circle10-2-9-5-1-2-4-0"
             d="m 395.79861,365.53626 a 74.676453,74.676453 0 0 1 -79.99362,68.93598 74.676453,74.676453 0 0 1 -68.9503,-79.98127 74.676453,74.676453 0 0 1 79.96891,-68.96463 74.676453,74.676453 0 0 1 68.97896,79.95655"
             style="fill:#464646;fill-opacity:1"
             inkscape:connector-curvature="0" />
          <path
             id="rect8439-3-1"
             d="m 333.72763,346.81992 94.07169,0 0,26.36072 -94.07169,0 z"
             style="opacity:1;fill:#ffffff;fill-opacity:1;stroke:#ffffff;stroke-width:6.10355473;stroke-miterlimit:4;stroke-dasharray:none;stroke-opacity:1"
             inkscape:connector-curvature="0" />
          <path
             id="circle10-2-9-5-1-2-1-7-5"
             d="m 373.98704,363.91484 a 52.804707,52.804707 0 0 1 -56.56454,48.74554 52.804707,52.804707 0 0 1 -48.75567,-56.55581 52.804707,52.804707 0 0 1 56.54707,-48.7658 52.804707,52.804707 0 0 1 48.77594,56.53834"
             style="fill:#ffffff;fill-opacity:1"
             inkscape:connector-curvature="0" />
        </g>
      </g>
      <g
         id="g4242">
        <g
           id="g4223">
          <path
             id="circle10-2-9-5-0-9"
             d="M 609.70921,367.83437 A 105.67626,105.67626 0 0 1 496.50852,465.38716 105.67626,105.67626 0 0 1 398.93545,352.20394 105.67626,105.67626 0 0 1 512.10118,254.6106 105.67626,105.67626 0 0 1 609.7148,367.75885"
             style="fill:#ffffff;fill-opacity:1"
             inkscape:connector-curvature="0" />
          <path
             style="fill:#464646;fill-opacity:1"
             inkscape:connector-curvature="0"
             d="m 517.23847,259.85073 c 14.59109,1.85786 28.21032,6.83974 40.16188,14.23783 -2.21135,1.69836 -4.42623,3.41383 -6.60845,5.15049 -2.12426,1.81041 -4.27691,3.60366 -6.38646,5.44835 l -5.95516,5.52715 c -1.38319,-0.91581 -3.05053,-1.45196 -4.83352,-1.45196 -0.76228,0 -1.49351,0.10408 -2.18602,0.28067 -0.28272,-0.48863 -0.55314,-0.98142 -0.82672,-1.4822 -1.49936,-3.03717 -3.10899,-6.05322 -4.66894,-9.08227 -1.42381,-3.09375 -2.95562,-6.14407 -4.42755,-9.24185 l -2.10428,-4.71027 c -0.7007,-1.561 -1.44281,-3.11595 -2.16478,-4.67594 z m -4.58202,1.13593 c -0.48753,1.00667 -1.18623,2.498 -2.1255,4.35991 -0.46226,0.93295 -0.98159,1.96588 -1.54889,3.08565 -0.57247,1.1147 -1.26191,2.29403 -1.98605,3.56421 -1.48425,2.51016 -3.01282,5.46656 -5.03331,8.43816 -1.95907,3.01188 -3.99838,6.348 -6.48932,9.63159 -1.22067,1.65887 -2.44769,3.39152 -3.75322,5.12014 -1.34793,1.7064 -2.72009,3.43905 -4.15207,5.18484 -0.7129,0.86437 -1.43465,1.74581 -2.15644,2.63128 -0.76046,0.85624 -1.51687,1.7246 -2.29036,2.59297 -1.54162,1.72452 -3.07838,3.50871 -4.67884,5.25441 -1.66816,1.68521 -3.34526,3.38359 -5.02926,5.07682 -0.85126,0.8512 -1.66808,1.73667 -2.5536,2.54547 l -0.96626,0.89869 c 0.44744,1.0501 0.70177,2.21222 0.70177,3.43094 0,0.61288 -0.0693,1.2187 -0.18582,1.79323 0.50785,0.24232 1.00669,0.47563 1.50851,0.72999 2.61789,1.32581 5.23945,2.84743 7.92923,4.30845 2.72935,1.43375 5.34932,3.08058 8.02813,4.73143 1.3308,0.82495 2.67479,1.66802 4.0207,2.51519 0.99149,0.63112 1.96781,1.31369 2.94231,1.99616 1.47525,-1.12273 3.30753,-1.79315 5.29077,-1.79315 0.56136,0 1.10677,0.0567 1.64193,0.15546 l 0.95303,-1.64683 c 0.93522,-1.5681 1.78422,-3.18863 2.79794,-4.70929 l 6.11355,-9.08729 1.53485,-2.25974 c 0.51513,-0.76026 1.08851,-1.46 1.63268,-2.19505 1.1008,-1.45204 2.22363,-2.89485 3.34335,-4.32964 2.25253,-2.86457 4.42459,-5.78561 6.91323,-8.4644 0.50807,-0.58761 1.03111,-1.17117 1.54705,-1.75887 -1.10162,-1.46 -1.75797,-3.27545 -1.75797,-5.2545 0,-2.70905 1.22486,-5.13742 3.16437,-6.74483 l -0.74914,-1.59838 c -1.35514,-3.18049 -2.62507,-6.39441 -3.9216,-9.59218 -1.17947,-3.25323 -2.25872,-6.54185 -3.37258,-9.79513 l -1.40235,-4.9647 c -0.45742,-1.65493 -0.87858,-3.33101 -1.32576,-4.98593 -1.26639,-0.17266 -2.55343,-0.30691 -3.83915,-0.41498 0,-8.4e-4 -0.26035,0.53916 -0.74591,1.5499 z m 22.75363,119.96095 c -1.01572,-1.10162 -2.03569,-2.21129 -3.06353,-3.331 -0.50602,-0.56651 -1.04993,-1.10266 -1.60525,-1.62871 -0.54929,-0.52704 -1.10468,-1.06319 -1.65819,-1.59939 -2.21126,-2.13343 -4.45654,-4.29931 -6.71642,-6.48128 -1.1035,-1.1228 -2.29001,-2.13852 -3.47939,-3.17151 -1.19143,-1.03291 -2.36877,-2.06579 -3.56029,-3.11086 -1.18648,-1.03288 -2.38891,-2.07392 -3.57317,-3.11595 -0.61012,-0.51794 -1.17945,-1.04607 -1.80651,-1.55085 l -1.91036,-1.48229 c -1.00348,-0.78153 -2.01942,-1.55085 -3.022,-2.3294 -1.40465,0.93299 -3.08041,1.48231 -4.88694,1.48231 -0.37369,0 -0.74715,-0.03 -1.12087,-0.078 -1.25311,2.57068 -2.39187,5.13734 -3.60156,7.69997 -0.7734,1.59033 -1.44304,3.24521 -2.12871,4.89201 l -2.0545,4.9435 c -0.69383,1.64579 -1.25739,3.33604 -1.90358,5.00312 l -1.89081,5.00811 -1.72471,5.08084 c -0.5574,1.68521 -1.19245,3.36133 -1.65902,5.08584 l -1.52063,5.13742 -0.78846,2.56264 -0.68052,2.59597 c -0.69566,2.64938 -1.42373,5.2928 -2.04764,7.95039 0.8207,0.38061 1.55994,0.88145 2.21216,1.47821 0.3998,-0.26865 0.78249,-0.53112 1.17733,-0.79462 2.11517,-1.32272 4.28003,-2.66665 6.47528,-4.04495 4.45462,-2.64845 9.10466,-5.30998 13.99549,-7.70903 1.22272,-0.61296 2.44158,-1.22682 3.66934,-1.85287 1.23586,-0.57445 2.48574,-1.14999 3.74397,-1.73358 2.50199,-1.13189 5.01018,-2.30222 7.60208,-3.29676 2.57259,-1.00263 5.10712,-2.0951 7.71924,-3.03314 2.61508,-0.92486 5.198,-1.87195 7.78891,-2.75646 0.38452,-0.1161 0.76021,-0.22516 1.1429,-0.34131 0,-0.0685 -0.0158,-0.13939 -0.0158,-0.20298 0,-1.7457 0.51893,-3.36631 1.39641,-4.73244 -0.16755,-0.1807 -0.34718,-0.35641 -0.50882,-0.54324 z m -127.05827,-6.84382 c 1.48432,1.17129 2.92507,2.38897 4.42649,3.54307 3.0393,2.22538 5.97362,4.55073 9.01996,6.7327 l 4.59697,3.2492 c 1.53996,1.05821 3.03136,2.19914 4.63143,3.17656 l 4.68802,3.08967 c 1.56019,1.03195 3.10683,2.074 4.73579,3.00289 1.59832,0.96425 3.20565,1.91033 4.79581,2.89476 l 2.38909,1.4611 2.43745,1.36512 4.89403,2.72212 c 0.8189,0.44428 1.63068,0.92497 2.45653,1.34393 l 2.49803,1.26617 c 3.00084,1.52066 5.95433,3.12005 9.01361,4.51542 1.50341,-1.59835 3.5986,-2.63126 5.95035,-2.74842 0.49456,-2.76052 1.10162,-5.49991 1.66802,-8.25734 0.66139,-3.58645 1.71349,-7.08714 2.60889,-10.62515 0.43041,-1.77606 1.01099,-3.49965 1.52998,-5.25348 l 1.59801,-5.23734 c 1.17145,-3.44816 2.37001,-6.90029 3.67537,-10.31412 l 2.04789,-5.07682 c 0.68044,-1.69829 1.35407,-3.3916 2.14553,-5.05962 1.20764,-2.64941 2.37687,-5.37059 3.64723,-7.96356 -1.51256,-1.58118 -2.44761,-3.71664 -2.44761,-6.07536 0,-0.89459 0.13531,-1.7629 0.38874,-2.5798 -0.92506,-0.66538 -1.8558,-1.32674 -2.79794,-1.9446 -1.3176,-0.83812 -2.61204,-1.67615 -3.90857,-2.50617 -2.58373,-1.67606 -5.09904,-3.38749 -7.68483,-4.85262 -2.57991,-1.49939 -5.03832,-3.05033 -7.58275,-4.44167 -0.50481,-0.27668 -0.98961,-0.54018 -1.49135,-0.81181 -1.59843,1.75386 -3.89767,2.85641 -6.45904,2.85641 -1.61177,0 -3.11097,-0.43615 -4.41163,-1.19743 -3.72083,2.92501 -7.42321,5.81989 -11.15007,8.32191 -3.63592,2.66162 -7.35884,4.93442 -10.85843,7.12553 -3.58829,2.06078 -6.90018,4.11759 -10.13737,5.68561 -1.60032,0.82495 -3.13021,1.60744 -4.59108,2.35974 -1.45207,0.75213 -2.90799,1.33476 -4.22185,1.94863 -2.66159,1.2187 -4.97065,2.25979 -6.94154,2.98168 -3.89956,1.52975 -6.15021,2.33342 -6.15021,2.33342 0.0306,3.19775 0.21612,6.3521 0.53534,9.46301 1.50034,1.15207 2.97551,2.34044 4.45571,3.50666 z m 131.07299,4.25186 c 1.17022,-0.57452 2.47575,-0.90665 3.87314,-0.90665 3.28466,0 6.13809,1.80535 7.64345,4.48408 1.75181,-0.43213 3.49548,-0.84718 5.20197,-1.25711 2.43736,-0.49673 4.85475,-0.87638 7.18514,-1.30955 2.32516,-0.41401 4.61022,-0.7947 6.79928,-1.16625 2.20614,-0.35042 4.36996,-0.49673 6.42874,-0.73809 2.05682,-0.22515 4.03586,-0.43216 5.90686,-0.60078 1.88005,-0.18171 3.65305,-0.37563 5.32197,-0.39777 1.43496,-0.0567 2.77872,-0.0961 4.04495,-0.1253 0.0141,-1.78521 0.54822,-3.43102 1.4641,-4.80518 -0.2938,-0.20804 -0.57644,-0.41094 -0.86026,-0.61794 l -2.73733,-2.00429 -2.63326,-2.1345 -5.22642,-4.33869 c -0.85809,-0.73002 -1.76267,-1.4207 -2.59181,-2.1941 l -2.47566,-2.3294 -4.94159,-4.67091 c -1.6851,-1.52061 -3.2149,-3.19769 -4.76584,-4.85262 l -4.63445,-4.991 -1.15809,-1.24897 -1.09965,-1.29641 -2.18599,-2.61418 -4.30645,-5.27167 c -0.74304,-0.8683 -1.4064,-1.79325 -2.06779,-2.70897 l -2.01545,-2.74845 c -1.33882,-1.8457 -2.70079,-3.66015 -4.01045,-5.50996 -1.2844,-1.87505 -2.45875,-3.81973 -3.69146,-5.73409 l -3.6572,-5.75134 c -0.86034,-1.46906 -1.6681,-2.9816 -2.48475,-4.48501 -0.68583,0.17667 -1.39534,0.27658 -2.13475,0.27658 -1.40449,0 -2.72982,-0.34127 -3.91062,-0.92888 -0.4684,0.59571 -0.93496,1.20049 -1.40418,1.79322 -2.29834,2.74837 -4.28118,5.7422 -6.32595,8.66732 -1.02171,1.46912 -2.04773,2.93416 -3.08967,4.3851 -0.5171,0.73513 -1.06324,1.44289 -1.53808,2.19511 l -1.42323,2.27282 -5.69791,9.07424 c -1.20581,2.07392 -2.37802,4.16911 -3.5371,6.27835 1.37644,1.55195 2.21216,3.57331 2.21216,5.8068 0,1.03693 -0.18351,2.0305 -0.51668,2.94631 1.00463,0.79563 1.99804,1.58622 3.00374,2.36775 l 1.89924,1.49939 c 0.62605,0.51899 1.22678,1.08446 1.84284,1.62061 1.2266,1.08032 2.44744,2.17288 3.66602,3.25323 1.22084,1.08443 2.43647,2.16486 3.65522,3.24518 1.20756,1.08445 2.45068,2.12651 3.53885,3.29675 2.24272,2.291 4.46593,4.57092 6.66928,6.8145 0.54409,0.55734 1.0884,1.12273 1.63465,1.67607 0.55151,0.55331 1.09343,1.11467 1.5903,1.70639 1.01364,1.17025 2.02851,2.32938 3.03323,3.49057 0.17574,0.1989 0.33117,0.39273 0.50694,0.58761 z m 54.95099,-8.16243 c 1.58935,-1.60743 3.79349,-2.60101 6.2259,-2.60101 1.5692,0 3.0442,0.41094 4.31251,1.14101 0.25531,-2.87366 0.38055,-5.78972 0.38055,-8.73192 0,-36.29076 -19.1461,-68.11061 -47.89342,-85.91172 -1.94139,2.00931 -3.89934,3.99639 -5.86831,5.96733 -1.90937,2.02648 -3.79151,4.08322 -5.71186,6.07141 l -5.32214,5.97937 c 1.17947,1.49137 1.88807,3.37041 1.88807,5.42726 0,2.398 -0.96113,4.56278 -2.52116,6.15311 l 2.57465,4.26906 3.66414,5.5826 c 1.23702,1.85383 2.39618,3.74596 3.69262,5.55641 1.32576,1.78518 2.59412,3.61681 3.90164,5.42313 l 1.93735,2.71809 c 0.64414,0.90677 1.27756,1.82358 1.98647,2.67067 l 4.16689,5.23734 2.04564,2.63134 1.02478,1.3176 1.08851,1.26622 4.37927,5.05957 c 1.47303,1.66802 2.84713,3.431 4.41616,5.02133 l 4.58211,4.88188 2.28216,2.45459 c 0.7489,0.82998 1.57702,1.58118 2.36562,2.37282 l 4.78689,4.70518 2.37077,2.38897 2.4839,2.25971 c 0.2565,0.22617 0.50678,0.45942 0.76029,0.68865 z m -148.75894,71.96366 c 7.92743,5.67346 16.70254,10.22327 26.10919,13.43002 -0.0982,-3.61673 -0.24651,-7.24159 -0.1879,-10.85832 l 0.12673,-5.44032 0.0981,-2.72614 0.18987,-2.72222 0.3846,-5.44834 c 0.038,-0.5442 0.10459,-1.07939 0.16246,-1.61658 -1.2167,-0.41896 -2.31801,-1.09248 -3.23398,-1.96084 -0.57455,0.37163 -1.14109,0.75129 -1.68518,1.13195 -1.6679,1.16617 -3.26639,2.29103 -4.7749,3.36128 -0.76921,0.52709 -1.51256,1.04604 -2.23529,1.55093 -0.71102,0.52701 -1.40269,1.03289 -2.063,1.53069 -1.3398,0.99357 -2.59702,1.92246 -3.74602,2.77768 -0.58779,0.41904 -1.15216,0.82998 -1.68518,1.2187 -0.51702,0.40998 -1.01569,0.79973 -1.48434,1.17128 -3.54493,2.7868 -5.71896,4.41543 -5.9563,4.57998 0.21621,-0.23318 2.05887,-2.20412 5.21534,-5.4271 1.64868,-1.76801 3.8407,-3.68544 6.29936,-5.97644 2.4074,-2.35059 5.40098,-4.69212 8.56851,-7.37082 0.52295,-0.43728 1.07224,-0.85632 1.60741,-1.28744 -0.49662,-1.10254 -0.77836,-2.32026 -0.77836,-3.60766 0,-0.35034 0.0265,-0.69974 0.0669,-1.04102 -3.12788,-1.47409 -6.15095,-3.1593 -9.21239,-4.75768 l -2.52544,-1.35305 c -0.82675,-0.47051 -1.62657,-0.97633 -2.44539,-1.46403 l -4.896,-2.95134 -2.44556,-1.48232 -2.36792,-1.59033 c -1.59818,-1.04495 -3.1583,-2.13444 -4.72721,-3.19768 -1.59025,-1.0541 -3.11092,-2.20316 -4.62958,-3.34417 l -4.55673,-3.43091 c -1.52784,-1.11881 -2.95149,-2.39812 -4.41146,-3.60767 l -4.36796,-3.65511 c -1.45173,-1.21873 -2.79786,-2.58385 -4.19131,-3.85812 -1.3851,-1.30451 -2.77763,-2.59195 -4.14374,-3.91056 -2.65067,-2.68683 -5.23539,-5.43528 -7.80022,-8.22605 3.08297,29.47927 18.83721,55.18332 41.72215,71.55975 z m -27.0589,-135.46292 c -9.63968,15.47265 -15.20512,33.74127 -15.20512,53.3063 0,0.37965 0,0.76026 0.0158,1.1319 0,0 2.01712,-1.30052 5.5958,-3.43503 1.80446,-1.0329 3.90857,-2.44547 6.36502,-3.95803 2.46477,-1.50853 5.17585,-3.33099 8.14039,-5.27169 0.74285,-0.48871 1.49315,-0.98544 2.26484,-1.49134 0.76037,-0.52709 1.51661,-1.0723 2.30692,-1.62061 1.56821,-1.08032 3.18477,-2.19913 4.86475,-3.35323 1.62871,-1.20049 3.30587,-2.43734 5.0083,-3.70254 1.74981,-1.20956 3.45412,-2.55358 5.19783,-3.89743 1.73265,-1.35707 3.547,-2.69997 5.25469,-4.16509 1.73462,-1.42162 3.49963,-2.85638 5.27355,-4.30836 -0.37354,-0.97641 -0.58561,-2.02649 -0.58561,-3.12802 0,-0.63511 0.0693,-1.25812 0.20498,-1.85392 -1.64771,-0.8299 -3.24423,-1.63769 -4.85468,-2.29905 -4.39604,-1.93152 -8.39143,-3.81971 -12.03982,-5.19791 -1.81213,-0.73007 -3.51974,-1.41265 -5.08779,-2.0477 -1.55985,-0.67051 -3.04236,-1.17528 -4.36596,-1.65493 -4.99294,-1.77607 -7.95458,-2.9029 -8.30486,-3.0422 0.36753,0.078 3.46761,0.72188 8.62506,1.93152 2.76747,0.55733 6.05601,1.59835 9.8585,2.69997 1.88833,0.57453 3.94894,1.10153 6.02292,1.88 2.08729,0.7523 4.27725,1.53383 6.56709,2.35067 1.69838,0.57453 3.39667,1.25708 5.12941,1.9871 1.5984,-2.14359 4.1439,-3.52999 7.02144,-3.52999 1.47714,0 2.88354,0.37161 4.10255,1.02391 l 0.90457,-0.8169 c 0.87751,-0.78145 1.67618,-1.62863 2.5233,-2.43743 1.6681,-1.64984 3.33609,-3.28758 4.98379,-4.90408 1.60567,-1.66804 3.2059,-3.31392 4.78616,-4.9516 0.77762,-0.82093 1.56802,-1.62871 2.33937,-2.43639 0.75038,-0.83915 1.49334,-1.66813 2.22347,-2.48494 1.44993,-1.6589 2.92309,-3.2664 4.35681,-4.83546 1.39155,-1.59838 2.70715,-3.21895 4.02455,-4.76579 0.6444,-0.77343 1.28755,-1.5428 1.91864,-2.28998 0.32399,-0.38472 0.64414,-0.7523 0.95913,-1.12787 0.3,-0.37667 0.60115,-0.75633 0.8947,-1.12785 1.19045,-1.4994 2.32938,-2.94229 3.42886,-4.33767 2.2446,-2.75649 4.12699,-5.39186 5.86856,-7.699 0.87022,-1.15815 1.67815,-2.24257 2.43239,-3.2452 0.73108,-1.0289 1.3932,-1.97094 1.98591,-2.82617 1.2006,-1.70638 2.17105,-3.03314 2.82633,-3.94087 0.6624,-0.90673 1.01785,-1.38735 1.01785,-1.38735 -2.99698,-0.26959 -6.01689,-0.40386 -9.08023,-0.40386 -36.20519,0 -67.94417,19.04603 -85.76339,47.66411 z m 148.42437,132.47719 c -3.76907,0.0919 -7.55645,0.1172 -11.34599,0.1172 -1.89905,0.0135 -3.78218,-0.15557 -5.67042,-0.2424 l -5.68455,-0.31095 c -1.90127,-0.052 -3.77427,-0.3716 -5.66448,-0.55733 l -5.66136,-0.6523 c -1.89104,-0.17772 -3.76426,-0.49676 -5.63534,-0.83804 l -5.62692,-0.97238 -2.80379,-0.50993 -2.78782,-0.62197 c -1.85397,-0.41091 -3.70482,-0.838 -5.55863,-1.2793 l -2.78773,-0.66128 c -0.9158,-0.2323 -1.8235,-0.51904 -2.73933,-0.7694 l -5.496,-1.58128 c -3.68527,-0.96723 -7.27195,-2.35861 -10.89062,-3.60767 -2.28993,-0.74717 -4.48211,-1.61649 -6.65584,-2.50503 -1.56008,1.8235 -3.86934,2.99479 -6.44399,3.05435 -0.40886,2.29812 -0.76943,4.58912 -1.15207,6.88724 l -0.42802,2.65751 -0.34355,2.6787 -0.71077,5.36254 c -0.43609,3.5734 -0.73882,7.17294 -1.16701,10.76755 10.22107,3.49152 21.19062,5.38373 32.59314,5.38373 23.6696,0 45.44687,-8.14937 62.66109,-21.79956 z m 0.0158,0 c 2.51728,-1.99615 4.94756,-4.11253 7.25803,-6.33389 13.37545,-12.83736 23.20491,-29.31275 27.92115,-47.83165 -0.5019,0.0867 -1.03285,0.13427 -1.56911,0.13427 -4.34675,0 -7.94344,-3.16741 -8.63288,-7.31123 -1.26831,0.17768 -2.59497,0.35033 -4.02672,0.52709 -1.66593,0.17768 -3.40286,0.51896 -5.23322,0.86828 -1.82362,0.35846 -3.7552,0.71291 -5.7666,1.0582 -1.99623,0.39375 -4.09216,0.67855 -6.23985,1.18035 -2.12938,0.51904 -4.34273,1.05415 -6.62357,1.57314 -2.27302,0.53514 -4.61964,1.03195 -6.9946,1.64582 -1.64151,0.48058 -3.31983,0.97742 -5.01804,1.47418 l 0,0.0685 c 0,2.06486 -0.71794,3.958 -1.91441,5.45647 3.36628,4.22964 6.09672,8.69354 8.75722,12.67377 0.67543,1.01581 1.33186,2.00429 1.97187,2.98067 0.64611,0.97737 1.15716,1.99719 1.7237,2.95641 1.09337,1.91742 2.12443,3.75004 3.11386,5.46553 0.9613,1.71545 1.90766,3.30477 2.67586,4.82636 0.74087,1.5418 1.42356,2.9554 2.04747,4.22967 1.24107,2.54544 2.16596,4.56278 2.81809,5.9279 0.56654,1.1976 0.89462,1.90136 0.96535,2.0659 -0.0982,-0.14743 -0.50984,-0.80874 -1.2205,-1.9406 -0.79669,-1.28736 -1.99854,-3.14527 -3.47064,-5.55647 -0.73817,-1.20049 -1.54705,-2.52324 -2.43646,-3.96706 -0.92456,-1.42171 -2.00713,-2.91204 -3.09761,-4.54067 -1.10468,-1.60845 -2.27076,-3.33606 -3.51183,-5.14648 -0.63505,-0.89965 -1.23775,-1.8457 -1.93051,-2.7615 -0.68969,-0.91584 -1.40251,-1.85283 -2.12234,-2.80403 -1.44397,-1.91435 -2.94218,-3.90141 -4.50631,-5.95722 -0.76955,-1.03291 -1.5521,-2.07895 -2.45768,-3.09068 -0.78778,-0.9582 -1.59833,-1.93059 -2.41531,-2.90289 -1.14085,0.5442 -2.41615,0.85522 -3.76206,0.85522 -3.0332,0 -5.70486,-1.52975 -7.27617,-3.8712 -0.38033,0.12915 -0.74999,0.2554 -1.11864,0.38464 -2.48689,0.94211 -4.99888,1.84075 -7.51599,2.77366 -2.52529,0.93803 -5.01038,2.04066 -7.51131,3.05033 -2.5251,0.98547 -4.95588,2.19511 -7.43343,3.27551 -1.22767,0.55737 -2.45478,1.10564 -3.68364,1.65899 -1.19933,0.58359 -2.40689,1.18026 -3.59537,1.76289 -2.39806,1.18035 -4.78498,2.32032 -7.0688,3.59861 -2.28821,1.26617 -4.6195,2.37682 -6.82274,3.65615 -2.20426,1.26614 -4.37713,2.50504 -6.49436,3.73288 -0.37568,0.22512 -0.75641,0.45734 -1.12787,0.68255 0.28264,0.87745 0.44907,1.80633 0.44907,2.76555 0,0.21607 -0.0205,0.43213 -0.033,0.6442 2.1672,0.90674 4.33189,1.79221 6.50601,2.53638 l 5.22118,1.90127 c 1.72553,0.68255 3.51265,1.24796 5.2818,1.81042 l 5.32312,1.72863 c 0.88865,0.28469 1.7759,0.58257 2.67273,0.84709 l 2.69789,0.74214 c 1.80412,0.47554 3.60157,0.98145 5.40397,1.49135 l 2.68995,0.7694 2.72794,0.64417 5.46859,1.26617 c 1.82362,0.41904 3.63806,0.88547 5.48081,1.20963 3.68355,0.68258 7.34761,1.47317 11.05325,2.06582 l 11.1501,1.69835 c 3.74405,0.41899 7.48793,0.85624 11.24005,1.35198 l 0.0141,-2.43641 0,2.43537 z"
             id="path8258-0-7-0" />
        </g>
      </g>
    </g>
  </g>
</svg>
